<svg xmlns="http://www.w3.org/2000/svg" xmlns:xlink="http://www.w3.org/1999/xlink" viewBox="0 0 64 64"><style>.st0{fill:#3ae57c}.st1{display:none}.st2{display:inline;fill:none;stroke:#000;stroke-width:14.5595;stroke-miterlimit:10}.st4{fill:#fff}.st5{display:inline}</style><path class="st0" d="M32 64C14.3 64 0 49.7 0 32S14.3 0 32 0s32 14.3 32 32-14.3 32-32 32z" id="Layer_6"/><g id="Layer_7" class="st1"><ellipse class="st2" cx="512" cy="512" rx="310.4" ry="309.6"/><ellipse cx="512" cy="512" rx="472.7" ry="471.4" fill="#fff" stroke="#000" stroke-width="14.56" stroke-miterlimit="10"/><path class="st2" d="M39.3 512h945.4"/></g><g id="Layer_1"><path d="M49.7 8.4c-2.1 1.8-4.3 3-6.7 3.8 1.9-1.4 3.6-3 5-4.9l-2.7-1.5c-2.6 3.4-7.3 7.1-9.1 7.4 1.2-1.2 2.6-2.4 3.8-3.8 1.2-1.3 2.2-2.9 2.9-4.7-.8-.3-1.6-.5-2.4-.8-.5-.2-.8 0-1 .4-.4.8-.8 1.6-1.2 2.3-.6 1-1.4 2-2.1 3-.1 0-.1-.1-.2-.1 0-.4 0-.5.1-.7.6-1.5.9-3.2.9-4.8 0-1.1.2-1-1-1.2-.3 0-.7-.1-1-.1-1.4-.2-1.6-.1-2.3 1.2-.2.4-.4.9-.5 1.3 0 .1-.1.2-.1.2-.4-.7-.8-1.5-1.3-2.3-.2-.4-.6-.5-1.1-.5l-2.2.3c-.4 0-.5.2-.5.6.1 1.1.1 2.1.3 3.2.1.9.5 1.7.7 2.7l-.3-.3C26.8 7.8 25.9 6.4 25 5c-.3-.4-.5-.8-.7-1.2-.1-.1-.3-.2-.5-.2-.8.4-1.7.7-2.8 1 .7 1.1 1.2 2.2 1.9 3.2s1.5 2 2.4 2.8c.8.9 1.8 1.6 2.6 2.4-3.7-1.7-7-3.9-9.3-7.4-.9.5-1.8 1-2.7 1.6 1.5 1.9 3.2 3.5 5 4.9-2.4-.8-4.7-2-6.7-3.8-1.4 1.2-2.7 2.5-4.1 3.8.5.2.8.3 1.2.4 2.5 1 5 1.9 7.3 3 3.8 1.8 7.3 4.2 9.4 8.1.3.6 1 .7 1.6.2 1.7-1.2 2.9-1.2 4.6 0 .6.4 1.3.3 1.6-.3 1.6-3 4.2-5.1 7.1-6.8 3-1.8 6.1-3 9.4-4.2.4-.1.9-.3 1.5-.5-1.4-1.2-2.7-2.4-4.1-3.6zM6.9 47.1l.3.6c.6.9 1.3 1.8 2 2.7 4.6 5.6 10.5 9.1 17.7 10.5.4.1.6 0 .8-.4.6-1.3.5-2.5-.2-3.8l-4.8-9c-.9-1.8-2.4-2.3-4.1-1.1a18.8 18.8 0 0 1-6.4 3c-.9.2-1.9.3-2.9.5v-.2c5.5-1 9.5-3.9 12-8.9-3.6 4.7-8.3 6.8-14.4 6.1zm47.7 2.8H54c-3.3-.3-6.2-1.5-8.9-3.4-1.4-1.1-3.1-.6-3.8 1-.2.5-.5 1-.7 1.5-1.4 2.5-2.7 5.1-4.1 7.6-.7 1.2-.8 2.5-.2 3.7.2.4.4.6.9.5 8.4-1.6 15-6.1 19.7-13.2.1-.1.2-.3.3-.5-6.1.7-10.8-1.4-14.4-6.2 2.3 5 6.4 8 11.8 9zM14.8 35.7c-5.4.4-9.3-1.8-12-6.5l-.1.1c-.4 4.3.2 8.4 1.6 12.5.1.3.4.5.6.6C9.7 45 15.6 44 19.2 40.1c1.5-1.6 2.4-3.5 2.8-5.6-.8 1.3-1.7 2.5-2.9 3.5.5-1.3 1-2.5 1.1-3.9-3.3.8-6.4.5-9.2-1.2-2.9-1.7-4.6-4.2-5.5-7.5-.1 3.8 2.7 9.2 9.3 10.3zm34.4-.1c5.7-1.2 9.8-5.7 9.4-10.3-.9 3.3-2.7 5.8-5.5 7.5-2.9 1.7-5.9 2-9.4 1.2.4 1.4.8 2.7 1.2 4-1.2-1-2.1-2.2-2.8-3.5v.2c1.6 7.5 10.5 11.5 17.1 7.7.2-.1.5-.4.6-.7 1.4-4 1.9-8.1 1.6-12.3 0-.1-.1-.1-.1-.3-1.2 2.3-2.8 4-5 5.2-2.4 1.2-4.7 1.7-7.1 1.3zM34 38.2s-.1 0-.1-.1c0-.2.1-.3.1-.5.2-1.9.5-3.8.7-5.7.1-1.4-1-2.5-2.5-2.5-1.7 0-2.8.9-2.7 2.4 0 1 .1 2.1.2 3.1.1 1.1.4 2.1.5 3.1h-.1l-1.2-2.4h-.1c.1.9.1 1.7.2 2.8-.9-1.2-1.6-2.3-1-3.6.6-1.4-.3-2.2-.8-3.3-1.1 1.9-2.1 3.6-2.5 5.7 1.1-.7 1.5-.6 2.5.1.5.4.9.8 1.4 1.1.4.3.5.6.6 1 .4 2.8 1.3 5.4 2.5 8 .1.2.2.4.4.7.2-.3.3-.4.4-.6 1-2.1 1.9-4.3 2.2-6.5.2-1.7 1-2.8 2.3-3.7.9-.6 1.6-.9 2.6-.1-.6-1.9-1.6-3.6-2.6-5.5-.2.5-.4.8-.6 1.2-.5.7-.5 1.4-.2 2.2.5 1.3-.1 2.4-1 3.5.1-1 .1-1.9.2-2.7h-.1c-.5.7-.9 1.5-1.3 2.3zm-10.6-8.1c.5-1.4.5-2.9.3-4.4 1.3 1.2 2.2 2.6 3.1 4.3.3-1.9.1-3.5-.6-5-1-2.2-2.7-3.7-4.8-4.7-2.4-1.1-4.9-2.1-7.4-3.1-2-.8-4.1-1.3-6.2-2-.5.9-1.1 1.8-1.6 2.7.3.1.6.2.8.3 2.8.9 5.5 1.8 8.3 2.7 1.2.4 2.5.8 3.6 1.4 2.8 1.8 4.3 4.4 4.5 7.8zm32.8-14.9c-2.8 1-5.6 1.8-8.4 2.8-2.2.8-4.4 1.7-6.4 3a9.41 9.41 0 0 0-3.9 4.7c-.4 1.3-.6 2.7-.3 4.2.9-1.7 1.8-3.1 3.1-4.4 0 .9-.1 1.6-.1 2.3 0 .7.2 1.4.3 2.1.2-3.5 2.5-7.3 6.4-8.5 2.8-.9 5.5-1.8 8.3-2.7.9-.3 1.7-.6 2.6-.9-.5-.8-1-1.7-1.6-2.6zM10.1 25.7c-.1.2-.1.3-.1.4-.6 3.7 2.8 7.2 6.6 6.7 1-.1 1.7-.6 2-1.5.3-1 0-1.8-.8-2.5-1.3-1.1-2.8-2-4.5-2.5-1-.3-2.1-.4-3.2-.6zm43.9.1c-.1 0-.1-.1-.2-.1-3.1.1-5.7 1.1-7.9 3.2-.6.6-.7 1.4-.5 2.2.2.8.8 1.3 1.6 1.5 2.1.4 4-.2 5.4-1.8 1.4-1.4 1.9-3.1 1.6-5zm-29.5 12c-.1.2-.1.3-.1.4-.4 2.6-.2 5.1.7 7.5 1.9 4.6 4 9.1 6.6 13.4.1.2.2.3.4.6.2-.3.3-.5.5-.8 2.4-4.1 4.5-8.4 6.3-12.8 1-2.5 1.3-5.1.9-7.7 0-.1-.1-.3-.1-.5-.4.5-.5 1-.4 1.5.3 2.1 0 4.2-.8 6.1-1.7 3.9-3.6 7.7-5.9 11.3-.1.2-.3.4-.4.6-.2-.3-.3-.4-.4-.6-2.2-3.5-4-7.1-5.7-10.9-.9-2.1-1.3-4.2-1-6.5-.1-.6-.2-1.1-.6-1.6zm5.3-10c.7-.1 1.4-.3 2.1-.3.7 0 1.5.2 2.2.3-1.2-2-3.1-2-4.3 0zm33.4 4.1c0 17.2-14 31.2-31.2 31.2S.8 49.1.8 31.9 14.7.8 32 .8s31.2 13.9 31.2 31.1z"/><path class="st0" d="M49.7 8.4c1.4 1.3 2.7 2.5 4.2 3.8-.6.2-1 .4-1.5.5-3.2 1.1-6.4 2.4-9.4 4.2-2.9 1.7-5.4 3.8-7.1 6.8-.4.7-1 .7-1.6.3-1.8-1.2-2.9-1.2-4.6 0-.6.4-1.3.4-1.6-.2-2.1-3.9-5.6-6.2-9.4-8.1-2.4-1.1-4.9-2-7.3-3-.3-.1-.7-.3-1.2-.4 1.4-1.3 2.8-2.5 4.1-3.8 2 1.8 4.3 3 6.7 3.8-1.8-1.4-3.5-3-5-4.9.9-.5 1.8-1 2.7-1.6 2.3 3.5 5.6 5.7 9.3 7.4-.9-.8-1.8-1.5-2.6-2.4C24.5 9.9 23.7 9 23 8c-.7-1-1.2-2.1-1.9-3.2 1.1-.4 2-.7 2.9-.9.1 0 .4.1.5.2.3.4.5.8.7 1.2.9 1.4 1.8 2.7 2.7 4.1l.3.3c-.3-1-.6-1.8-.7-2.7-.2-1.1-.2-2.1-.3-3.2 0-.4.1-.6.5-.6.7-.1 1.5-.1 2.2-.3.5-.1.8.1 1.1.5.5.8.9 1.5 1.3 2.3 0 0 0-.1.1-.2.2-.4.3-.9.5-1.3.7-1.2.9-1.3 2.3-1.2.3 0 .7.1 1 .1 1.2.2 1 0 1 1.2 0 1.7-.3 3.3-.9 4.8-.3-.1-.3 0-.4.2.1 0 .1.1.2.1.7-1 1.4-1.9 2.1-3 .5-.7.8-1.5 1.2-2.3.2-.4.5-.6 1-.4.8.3 1.6.5 2.4.8-.7 1.8-1.7 3.3-2.9 4.7-1.2 1.3-2.6 2.6-3.8 3.8 1.9-.3 6.5-4 9.1-7.4.9.5 1.7 1 2.7 1.5a28.9 28.9 0 0 1-5 4.9c2.5-.6 4.7-1.8 6.8-3.6zM6.9 47.1c6.1.7 10.8-1.4 14.4-6.2-2.5 5-6.5 8-12 8.9v.2c1-.2 1.9-.3 2.9-.5 2.3-.5 4.5-1.5 6.4-3 1.6-1.2 3.1-.7 4.1 1.1 1.5 3 3.2 6 4.8 9 .7 1.3.8 2.5.2 3.8-.2.4-.4.5-.8.4A28.9 28.9 0 0 1 9.2 50.4c-.7-.9-1.3-1.8-2-2.7l-.3-.6zM54.6 49.9c-5.5-1-9.5-4-12-9 3.6 4.8 8.4 6.9 14.4 6.2-.1.2-.2.4-.3.5C52 54.8 45.5 59.2 37 60.8c-.5.1-.7-.1-.9-.5-.6-1.3-.5-2.5.2-3.7 1.4-2.5 2.8-5.1 4.1-7.6.3-.5.5-1 .7-1.5.7-1.6 2.4-2.1 3.8-1 2.6 2 5.6 3.1 8.9 3.4h.8zM14.8 35.7c-6.6-1.1-9.4-6.5-9.4-10.4.9 3.3 2.7 5.9 5.5 7.5 2.9 1.7 5.9 2.1 9.2 1.2-.1 1.4-.5 2.7-1.1 3.9 1.2-1 2.1-2.2 2.9-3.5-.4 2.1-1.4 4-2.8 5.6-3.5 4-9.4 5-14.1 2.5-.3-.1-.5-.4-.6-.6-1.5-4-2-8.2-1.6-12.5 0 0 0-.1.1-.1 2.6 4.6 6.6 6.8 11.9 6.4z"/><path class="st0" d="M49.2 35.6c2.5.3 4.8-.1 7-1.3s3.8-2.9 5-5.2c.1.1.1.2.1.3.3 4.2-.2 8.3-1.6 12.3-.1.3-.3.6-.6.7-6.6 3.8-15.6-.2-17.1-7.7v-.2c.7 1.3 1.6 2.5 2.8 3.5-.4-1.3-.8-2.6-1.2-4 3.4.8 6.5.5 9.4-1.2 2.8-1.7 4.7-4.2 5.5-7.5.5 4.6-3.7 9.1-9.3 10.3z"/><path class="st4" d="M34 38.2l1.2-2.4h.1c-.1.9-.1 1.7-.2 2.7.9-1.1 1.5-2.2 1-3.5-.3-.8-.3-1.5.2-2.2.2-.3.4-.7.6-1.2 1.1 1.8 2.1 3.6 2.5 5.7-1-.8-1.7-.5-2.6.1-1.4.9-2.1 2-2.3 3.7-.3 2.3-1.2 4.5-2.2 6.5-.1.2-.2.4-.4.6-.2-.3-.3-.5-.4-.7a27.6 27.6 0 0 1-2.5-8c-.1-.4-.2-.8-.6-1-.5-.3-1-.7-1.4-1.1-1-.8-1.4-.8-2.5-.1.4-2.1 1.4-3.8 2.5-5.7.5 1.1 1.5 1.9.8 3.3-.6 1.3.1 2.4 1 3.6-.1-1-.1-1.9-.2-2.8h.1l1.2 2.4h.1a33.3 33.3 0 0 1-.7-6.2c0-1.5 1.1-2.5 2.7-2.4 1.5 0 2.6 1.1 2.5 2.5-.1 1.9-.4 3.8-.7 5.7 0 .2-.1.3-.1.5h.3z"/><path class="st0" d="M23.4 30.1c-.2-3.4-1.7-6-4.6-7.8-1.1-.6-2.3-1-3.6-1.4-2.7-.9-5.5-1.8-8.2-2.7-.2-.1-.5-.2-.8-.3.6-.9 1.1-1.8 1.6-2.7 2.1.7 4.2 1.3 6.2 2 2.5.9 5 1.9 7.4 3.1 2.1 1 3.8 2.5 4.8 4.7.7 1.5.9 3.2.6 5-.9-1.7-1.8-3.1-3.1-4.3.2 1.5.2 3-.3 4.4zM56.2 15.2c.6.9 1.1 1.8 1.7 2.7-.9.3-1.8.6-2.6.9-2.8.9-5.5 1.8-8.3 2.7-3.9 1.3-6.2 5-6.4 8.5-.1-.7-.3-1.4-.3-2.1 0-.7.1-1.5.1-2.3-1.3 1.3-2.2 2.7-3.1 4.4-.3-1.6-.1-2.9.3-4.2.7-2.1 2.1-3.6 3.9-4.7 2-1.3 4.2-2.2 6.4-3 2.7-1 5.5-1.9 8.3-2.9z"/><path class="st4" d="M10.1 25.7c1.1.2 2.2.3 3.2.6 1.7.5 3.2 1.3 4.5 2.5.8.7 1.1 1.5.8 2.5-.3.9-1 1.4-2 1.5-3.8.5-7.2-2.9-6.6-6.7 0-.1 0-.2.1-.4zM54 25.8c.3 1.9-.2 3.6-1.5 5a5.57 5.57 0 0 1-5.4 1.8c-.8-.1-1.4-.7-1.6-1.5-.2-.8-.1-1.6.5-2.2 2.2-2.1 4.9-3.2 7.9-3.2 0 .1 0 .1.1.1zM24.5 37.8c.5.5.5 1 .4 1.5-.3 2.3 0 4.4 1 6.5 1.7 3.7 3.5 7.4 5.7 10.9.1.2.2.3.4.6.2-.2.3-.4.4-.6 2.3-3.6 4.2-7.4 5.9-11.3.9-2 1.1-4 .8-6.1-.1-.5 0-1 .4-1.5.1.2.1.3.1.5.4 2.7.2 5.2-.9 7.7-1.8 4.4-3.9 8.7-6.3 12.8-.1.2-.3.5-.5.8-.2-.2-.3-.4-.4-.6a111 111 0 0 1-6.6-13.4c-1-2.4-1.1-4.9-.7-7.5.2 0 .2-.1.3-.3zM29.8 27.8c1.2-2 3-2 4.3 0-.7-.1-1.5-.3-2.2-.3-.6 0-1.4.2-2.1.3z"/></g><g id="Layer_2" class="st1"><path id="SVGID_x5F_1_x5F_" d="M729.9 245.1c147.4 120.3 169.3 337.4 49 484.8s-337.4 169.3-484.8 49-169.3-337.4-49-484.8 337.4-169.3 484.8-49z" fill="none"/><text class="st5"><textPath xlink:href="#SVGID_x5F_1_x5F_" startOffset="100%"> <tspan font-family="Arial-Black" font-size="140.53">OWLDEX</tspan> </textPath></text></g><g id="Layer_4" class="st1"><path id="SVGID_x5F_2_x5F_" d="M705.7 775.9c-145.7 107-350.6 75.5-457.5-70.2s-75.5-350.6 70.2-457.5 350.6-75.5 457.5 70.2 75.5 350.5-70.2 457.5z" fill="none"/><text class="st5"><textPath xlink:href="#SVGID_x5F_2_x5F_" startOffset="39.13%"> <tspan font-family="Arial-Black" font-size="111.22">CARD KEEPER</tspan> </textPath></text></g><circle cx="512" cy="512" r="312.1" fill="none" stroke="#000" stroke-width="3.02" id="Layer_3"/></svg>